<?xml version="1.0" standalone="no"?>
<!DOCTYPE svg PUBLIC "-//W3C//DTD SVG 20010904//EN"
 "http://www.w3.org/TR/2001/REC-SVG-20010904/DTD/svg10.dtd">
<svg version="1.0" xmlns="http://www.w3.org/2000/svg"
 width="216.000000pt" height="216.000000pt" viewBox="0 0 216.000000 216.000000"
 preserveAspectRatio="xMidYMid meet">

<g transform="translate(0.000000,216.000000) scale(0.100000,-0.100000)"
fill="#000000" stroke="none">
<path d="M1405 2112 c-27 -16 -86 -49 -130 -74 -44 -25 -174 -98 -290 -163
-116 -65 -240 -136 -277 -157 -207 -117 -454 -256 -538 -304 -128 -71 -140
-79 -137 -86 1 -4 149 -117 329 -253 l328 -245 727 426 c401 235 729 428 731
429 1 1 -23 21 -55 45 -45 34 -60 40 -72 31 -9 -6 -33 -20 -54 -31 l-38 -21
-132 79 c-73 43 -151 89 -174 102 l-42 23 -3 81 -3 81 -50 32 c-27 18 -54 33
-60 33 -5 0 -32 -13 -60 -28z m61 -225 c40 -29 113 -78 161 -110 48 -31 103
-70 122 -86 31 -25 33 -31 27 -64 -6 -30 -15 -41 -46 -57 -21 -11 -55 -31 -76
-45 -46 -31 -107 -48 -145 -40 -30 7 -115 60 -209 133 -30 23 -75 56 -99 74
-139 104 -140 101 68 214 50 27 84 40 100 37 14 -2 57 -28 97 -56z m-433 -163
c18 -9 39 -23 47 -31 8 -8 69 -49 135 -93 66 -43 138 -94 159 -112 36 -31 38
-37 32 -70 -6 -32 -14 -39 -99 -86 -114 -62 -128 -66 -174 -51 -48 15 -93 45
-238 155 -125 96 -165 130 -165 142 1 21 71 73 150 111 25 12 56 28 70 36 32
19 44 19 83 -1z m-352 -229 c19 -13 54 -38 79 -54 111 -73 241 -166 261 -187
34 -37 20 -85 -34 -113 -23 -13 -60 -33 -83 -45 -80 -46 -107 -50 -161 -24
-26 12 -49 26 -51 30 -2 4 -8 8 -14 8 -9 0 -193 135 -294 216 -8 6 -14 23 -14
37 0 20 11 32 50 56 27 17 64 37 82 46 18 8 49 24 68 35 46 26 70 25 111 -5z"/>
<path d="M1423 1231 l-723 -426 0 -387 c0 -224 4 -389 9 -393 5 -3 15 1 23 8
7 7 99 66 203 132 105 65 213 133 240 150 28 18 172 108 320 200 149 92 293
182 320 200 28 17 84 53 126 79 42 26 106 78 143 115 l66 67 -2 341 -3 341
-722 -427z"/>
<path d="M10 896 l0 -405 37 -30 c21 -17 43 -31 49 -31 7 0 34 15 62 33 l49
34 164 -109 164 -108 5 -92 5 -93 60 -36 c33 -20 63 -35 68 -32 11 6 9 783 -2
783 -6 0 -151 107 -323 238 -172 131 -319 241 -325 246 -10 6 -13 -76 -13
-398z"/>
</g>
</svg>
