<?xml version="1.0" standalone="no"?>
<!DOCTYPE svg PUBLIC "-//W3C//DTD SVG 20010904//EN"
 "http://www.w3.org/TR/2001/REC-SVG-20010904/DTD/svg10.dtd">
<svg version="1.0" xmlns="http://www.w3.org/2000/svg"
 width="216.000000pt" height="216.000000pt" viewBox="0 0 216.000000 216.000000"
 preserveAspectRatio="xMidYMid meet">

<g transform="translate(0.000000,216.000000) scale(0.100000,-0.100000)"
fill="#000000" stroke="none">
<path d="M1310 1744 c-85 -36 -279 -117 -430 -180 -641 -267 -850 -358 -843
-364 4 -4 147 -73 318 -155 171 -81 312 -149 315 -151 10 -5 1424 571 1427
581 2 9 -593 327 -622 332 -5 1 -80 -28 -165 -63z m347 -142 c71 -37 71 -97 0
-135 -36 -19 -57 -22 -147 -22 -90 0 -111 3 -147 22 -66 36 -71 98 -10 129 55
29 80 33 172 31 69 -3 100 -8 132 -25z m-430 -170 c71 -37 71 -97 0 -135 -36
-19 -57 -22 -147 -22 -90 0 -111 3 -147 22 -66 36 -71 98 -10 129 55 29 80 33
172 31 69 -3 100 -8 132 -25z m-430 -170 c71 -37 71 -97 0 -135 -36 -19 -57
-22 -147 -22 -90 0 -111 3 -147 22 -66 36 -71 98 -10 129 55 29 80 33 172 31
69 -3 100 -8 132 -25z"/>
<path d="M1413 1153 l-723 -296 0 -299 c0 -164 2 -298 4 -298 3 0 58 25 123
56 65 31 150 71 188 89 39 18 129 61 200 95 72 34 209 99 305 145 96 46 229
109 295 140 66 32 171 81 233 111 l112 53 0 250 c0 138 -3 251 -7 251 -5 -1
-333 -134 -730 -297z"/>
<path d="M12 874 l3 -286 45 -24 c163 -89 577 -304 585 -304 3 0 4 136 3 301
l-3 302 -309 148 c-170 82 -313 149 -318 149 -5 0 -7 -129 -6 -286z"/>
</g>
</svg>
