<?xml version="1.0" standalone="no"?>
<!DOCTYPE svg PUBLIC "-//W3C//DTD SVG 20010904//EN"
 "http://www.w3.org/TR/2001/REC-SVG-20010904/DTD/svg10.dtd">
<svg version="1.0" xmlns="http://www.w3.org/2000/svg"
 width="216.000000pt" height="216.000000pt" viewBox="0 0 216.000000 216.000000"
 preserveAspectRatio="xMidYMid meet">

<g transform="translate(0.000000,216.000000) scale(0.100000,-0.100000)"
fill="#000000" stroke="none">
<path d="M797 2153 c-4 -3 -7 -57 -7 -120 l0 -113 275 0 275 0 0 120 0 120
-268 0 c-148 0 -272 -3 -275 -7z"/>
<path d="M302 1718 l3 -123 758 -3 757 -2 0 125 0 125 -760 0 -761 0 3 -122z"/>
<path d="M440 1375 l0 -145 365 0 365 0 0 145 0 145 -365 0 -365 0 0 -145z"/>
<path d="M1270 1375 l0 -145 225 0 225 0 0 145 0 145 -225 0 -225 0 0 -145z"/>
<path d="M440 1005 l0 -145 225 0 225 0 0 145 0 145 -225 0 -225 0 0 -145z"/>
<path d="M990 1005 l0 -145 365 0 365 0 0 145 0 145 -365 0 -365 0 0 -145z"/>
<path d="M440 635 l0 -145 365 0 365 0 0 145 0 145 -365 0 -365 0 0 -145z"/>
<path d="M1270 635 l0 -145 225 0 225 0 0 145 0 145 -225 0 -225 0 0 -145z"/>
<path d="M440 265 l0 -145 225 0 225 0 0 145 0 145 -225 0 -225 0 0 -145z"/>
<path d="M990 265 l0 -145 365 0 365 0 0 145 0 145 -365 0 -365 0 0 -145z"/>
</g>
</svg>
