<?xml version="1.0" standalone="no"?>
<!DOCTYPE svg PUBLIC "-//W3C//DTD SVG 20010904//EN"
 "http://www.w3.org/TR/2001/REC-SVG-20010904/DTD/svg10.dtd">
<svg version="1.0" xmlns="http://www.w3.org/2000/svg"
 width="216.000000pt" height="216.000000pt" viewBox="0 0 216.000000 216.000000"
 preserveAspectRatio="xMidYMid meet">

<g transform="translate(0.000000,216.000000) scale(0.100000,-0.100000)"
fill="#000000" stroke="none">
<path d="M797 2153 c-4 -3 -7 -57 -7 -120 l0 -113 275 0 275 0 0 120 0 120
-268 0 c-148 0 -272 -3 -275 -7z"/>
<path d="M312 1788 l3 -83 757 -3 758 -2 0 85 0 85 -760 0 -761 0 3 -82z"/>
<path d="M400 1565 l0 -85 95 0 95 0 0 85 0 85 -95 0 -95 0 0 -85z"/>
<path d="M630 1565 l0 -85 215 0 215 0 0 85 0 85 -215 0 -215 0 0 -85z"/>
<path d="M1100 1565 l0 -85 210 0 210 0 0 85 0 85 -210 0 -210 0 0 -85z"/>
<path d="M1570 1565 l0 -85 93 0 92 0 0 85 0 85 -92 0 -93 0 0 -85z"/>
<path d="M400 1355 l0 -85 210 0 210 0 0 85 0 85 -210 0 -210 0 0 -85z"/>
<path d="M868 1355 l3 -85 210 0 209 0 0 85 0 85 -212 0 -213 0 3 -85z"/>
<path d="M1330 1355 l0 -85 209 0 210 0 3 85 3 85 -212 0 -213 0 0 -85z"/>
<path d="M400 1150 l0 -80 95 0 95 0 0 80 0 80 -95 0 -95 0 0 -80z"/>
<path d="M630 1150 l0 -80 215 0 215 0 0 80 0 80 -215 0 -215 0 0 -80z"/>
<path d="M1100 1150 l0 -80 210 0 210 0 0 80 0 80 -210 0 -210 0 0 -80z"/>
<path d="M1570 1150 l0 -80 93 0 92 0 0 80 0 80 -92 0 -93 0 0 -80z"/>
<path d="M400 945 l0 -85 210 0 210 0 0 85 0 85 -210 0 -210 0 0 -85z"/>
<path d="M868 945 l-3 -85 213 0 212 0 0 85 0 85 -209 0 -210 0 -3 -85z"/>
<path d="M1330 945 l0 -85 213 0 212 0 -3 85 -3 85 -210 0 -209 0 0 -85z"/>
<path d="M400 735 l0 -85 95 0 95 0 0 85 0 85 -95 0 -95 0 0 -85z"/>
<path d="M630 735 l0 -85 215 0 215 0 0 85 0 85 -215 0 -215 0 0 -85z"/>
<path d="M1100 735 l0 -85 210 0 210 0 0 85 0 85 -210 0 -210 0 0 -85z"/>
<path d="M1570 735 l0 -85 89 0 90 0 3 85 3 85 -92 0 -93 0 0 -85z"/>
<path d="M400 525 l0 -85 210 0 210 0 0 85 0 85 -210 0 -210 0 0 -85z"/>
<path d="M868 525 l3 -85 210 0 209 0 0 85 0 85 -212 0 -213 0 3 -85z"/>
<path d="M1330 525 l0 -85 209 0 210 0 3 85 3 85 -212 0 -213 0 0 -85z"/>
<path d="M400 315 l0 -85 95 0 95 0 0 85 0 85 -95 0 -95 0 0 -85z"/>
<path d="M630 315 l0 -85 215 0 215 0 0 85 0 85 -215 0 -215 0 0 -85z"/>
<path d="M1100 315 l0 -85 210 0 210 0 0 85 0 85 -210 0 -210 0 0 -85z"/>
<path d="M1570 315 l0 -85 89 0 90 0 3 85 3 85 -92 0 -93 0 0 -85z"/>
<path d="M400 105 l0 -85 210 0 210 0 0 85 0 85 -210 0 -210 0 0 -85z"/>
<path d="M868 105 l3 -85 210 0 209 0 0 85 0 85 -212 0 -213 0 3 -85z"/>
<path d="M1330 105 l0 -85 209 0 210 0 3 85 3 85 -212 0 -213 0 0 -85z"/>
</g>
</svg>
