<?xml version="1.0" standalone="no"?>
<!DOCTYPE svg PUBLIC "-//W3C//DTD SVG 20010904//EN"
 "http://www.w3.org/TR/2001/REC-SVG-20010904/DTD/svg10.dtd">
<svg version="1.0" xmlns="http://www.w3.org/2000/svg"
 width="216.000000pt" height="216.000000pt" viewBox="0 0 216.000000 216.000000"
 preserveAspectRatio="xMidYMid meet">

<g transform="translate(0.000000,216.000000) scale(0.100000,-0.100000)"
fill="#000000" stroke="none">
<path d="M1650 2040 c-8 -5 -17 -7 -21 -4 -4 2 -11 -1 -15 -7 -4 -8 -9 -7 -15
2 -7 11 -9 11 -9 1 0 -7 -5 -10 -10 -7 -6 4 -17 1 -25 -5 -8 -7 -15 -9 -15 -5
0 5 -10 0 -22 -11 -12 -10 -18 -13 -14 -6 4 6 3 12 -3 12 -5 0 -15 -8 -20 -17
-6 -10 -11 -14 -11 -9 0 5 -9 1 -20 -9 -13 -11 -20 -14 -20 -6 0 9 -5 8 -15
-3 -9 -8 -22 -13 -30 -10 -8 4 -17 -1 -21 -9 -3 -9 -11 -14 -19 -11 -7 3 -15
-3 -19 -13 -6 -15 -8 -15 -16 -3 -7 11 -10 12 -10 2 0 -7 -4 -10 -10 -7 -5 3
-10 2 -10 -4 0 -6 -6 -8 -14 -5 -7 3 -16 -2 -20 -11 -3 -9 -11 -13 -17 -10 -5
4 -17 -1 -24 -11 -11 -15 -14 -16 -15 -4 -1 13 -2 13 -13 0 -12 -15 -28 -21
-60 -24 -10 0 -22 -8 -27 -16 -5 -8 -10 -11 -10 -6 0 5 -7 3 -15 -4 -8 -6 -19
-9 -25 -5 -5 3 -10 1 -10 -5 0 -6 -4 -8 -10 -5 -5 3 -10 2 -10 -4 0 -6 -6 -8
-14 -5 -7 3 -16 -3 -20 -13 -6 -15 -9 -15 -16 -3 -8 12 -10 12 -15 -2 -4 -9
-13 -14 -20 -12 -7 3 -16 1 -20 -5 -3 -6 -13 -11 -22 -11 -9 0 -22 -8 -30 -17
-8 -10 -12 -12 -8 -5 3 6 2 12 -3 12 -6 0 -12 -7 -16 -15 -3 -8 -11 -12 -19
-10 -7 3 -23 -5 -36 -19 -13 -13 -29 -22 -36 -20 -7 3 -16 0 -21 -7 -5 -8 -3
-10 6 -4 8 5 11 4 6 -3 -4 -6 -13 -9 -21 -5 -8 3 -15 0 -15 -6 0 -6 -15 -25
-32 -42 -18 -17 -27 -28 -20 -24 11 6 11 3 1 -13 -7 -12 -17 -18 -21 -16 -5 3
-8 2 -7 -3 4 -21 -2 -34 -13 -27 -6 4 -8 3 -4 -4 3 -6 -6 -23 -21 -37 l-28
-27 48 7 c27 3 59 8 70 11 197 39 515 28 751 -26 103 -23 397 -110 409 -120
12 -11 -47 -125 -64 -123 -7 1 -61 21 -119 46 -213 90 -351 129 -565 163 -158
25 -455 22 -527 -5 -14 -5 -28 -8 -31 -5 -2 3 -7 -2 -11 -11 -3 -10 -2 -14 5
-9 6 3 5 -3 -2 -14 -7 -12 -17 -18 -21 -16 -5 3 -8 2 -7 -3 3 -20 -2 -34 -11
-28 -6 4 -10 3 -9 -2 3 -20 -2 -34 -11 -28 -6 4 -10 3 -9 -2 3 -20 -2 -34 -11
-28 -6 4 -10 3 -9 -2 4 -22 -2 -34 -13 -27 -7 4 -10 4 -6 -1 10 -10 -32 -86
-44 -79 -5 3 -8 2 -7 -3 3 -20 -2 -34 -11 -28 -6 4 -10 3 -9 -2 4 -21 -3 -31
-21 -36 -59 -15 4 -22 212 -22 302 0 456 -26 738 -122 99 -34 301 -111 308
-118 4 -4 -58 -114 -67 -120 -4 -2 -52 18 -107 44 -209 101 -515 202 -704 231
-41 6 -88 14 -105 16 -53 9 -312 12 -324 4 -7 -4 -12 -9 -11 -11 4 -11 -13
-38 -21 -33 -5 3 -9 2 -8 -3 3 -20 -2 -34 -11 -28 -6 4 -10 3 -9 -2 3 -17 -2
-29 -22 -53 -11 -14 -17 -19 -13 -11 4 9 3 12 -4 7 -6 -4 -9 -12 -7 -19 3 -7
-5 -23 -16 -37 -11 -14 -17 -19 -13 -11 4 9 3 12 -4 7 -6 -4 -9 -13 -6 -20 3
-8 0 -17 -7 -22 -8 -5 -10 -3 -4 6 5 9 4 11 -4 6 -6 -4 -9 -12 -5 -17 6 -11
-31 -76 -47 -81 -16 -5 -13 -92 5 -126 31 -61 145 -150 281 -220 421 -216 581
-266 730 -229 91 23 170 54 270 105 71 36 108 64 176 131 99 99 120 133 287
466 128 255 161 331 211 489 73 229 92 364 67 489 -24 122 -74 194 -138 201
-15 1 -34 8 -42 16 -13 10 -16 10 -16 0 0 -9 -5 -8 -18 3 -22 20 -36 22 -26 5
4 -7 -2 -4 -14 6 -15 13 -22 15 -22 6 0 -9 -3 -10 -13 -1 -8 6 -17 8 -20 4 -4
-3 -7 -1 -7 6 0 9 -10 12 -30 9 -16 -2 -32 0 -34 6 -2 6 -5 5 -5 -3 -1 -10 -4
-11 -14 -3 -8 7 -18 7 -27 2z"/>
</g>
</svg>
